<?xml version="1.0" encoding="UTF-8" standalone="no"?><!-- Generator: Gravit.io --><svg xmlns="http://www.w3.org/2000/svg" xmlns:xlink="http://www.w3.org/1999/xlink" style="isolation:isolate" viewBox="-1.5 246.653 527.431 484.347" width="527.431pt" height="484.347pt"><g><path d=" M 113.337 525.225 C 112.446 528.449 112.833 531.096 114.467 533.13 C 113.51 535.116 113.521 537.009 114.467 538.777 C 111.881 540.822 111.516 543.092 113.337 545.553 C 111.079 545.553 110.337 547.447 111.079 551.2 C 109.196 549.129 108.455 549.141 108.82 551.2 C 106.561 551.764 105.82 553.658 106.561 556.846 C 103.533 553.48 101.673 554.255 100.915 559.105 L 97.527 552.329 C 98.776 549.695 98.411 547.448 96.397 545.553 C 96.962 541.036 96.973 536.153 96.397 530.872 C 95.644 526.166 94.526 522.789 93.009 520.708 C 94.205 520.106 96.099 504.306 98.656 473.276 C 103.561 460.959 101.69 449.3 93.009 438.267 C 75.388 417.309 69.764 397.004 80.587 379.542 C 75.467 371.368 73.596 367.615 68.164 368.248 C 35.79 380.671 30.143 347.167 52.353 330.98 C 45.081 330.417 45.954 324.581 56.871 316.299 C 53.859 295.971 44.072 286.56 42.19 272.255 C 45.801 272.058 46.402 275.302 46.707 277.902 C 57.021 287.142 58 282.043 74.94 301.618 C 79.267 307.901 84.56 307.923 86.233 301.618 C 87.363 266.232 104.326 244.983 116.725 248.539 C 123.751 272.879 118.88 294.359 102.044 312.911 C 107.742 322.263 113.777 338.462 120.113 361.472 C 122.869 364.479 133.828 370.187 137.053 372.766 C 156.278 388.136 146.35 379.131 208.201 393.094 C 270.052 407.056 307.351 443.542 322.263 507.156 C 324.505 519.859 325.555 531.061 323.631 548.89 C 324.825 657.75 432.009 660.302 495.809 663.003 C 524.105 667.12 520.283 678.769 524.431 684.46 L 440.941 684.46 C 397.42 686.105 296.282 664.359 279.349 587.338 C 264.231 588.024 254.465 582.775 240.951 571.528 C 218.652 589.246 222.658 622.057 240.951 669.908 C 242.75 674.614 244.716 682.202 240.951 684.46 L 137.053 684.46 C 122.86 670.742 143.865 670.042 211.589 663.003 C 211.749 648.262 205.492 607.427 205.942 587.338 C 205.478 536.662 190.075 526.51 176.58 512.802 C 161.718 499.904 151.216 508.656 129.148 480.052 C 119.024 501.158 113.765 516.227 113.337 525.225 Z  M 108.82 477.748 C 106.561 491.345 103.293 508.923 104.303 511.673 C 107.358 508.191 109.808 495.439 118.984 472.147 C 117.29 467.817 116.172 466.323 113.337 465.371 C 112.067 466.923 110.083 472.632 108.82 477.748 Z " fill-rule="evenodd" fill="rgb(0,0,0)" vector-effect="non-scaling-stroke" stroke-width="1" stroke="rgb(0,0,0)" stroke-linejoin="miter" stroke-linecap="square" stroke-miterlimit="3"/><g><rect x="0" y="683" width="524" height="48" transform="matrix(1,0,0,1,0,0)" fill="rgb(0,0,0)"/><path d=" M 0 683.546 C 2.092 654.147 10.102 616.544 24 570.709 C 14.158 622.431 14.168 660.008 24 683.41 C 36.444 662.263 42.515 634.469 42.183 600 C 48.595 622.031 48.605 649.844 42.183 683.41 C 55.435 605.697 76.858 577.904 106.422 600 C 79.806 589.528 63.286 617.341 56.834 683.41 L 0 683.546 Z " fill="rgb(0,0,0)" vector-effect="non-scaling-stroke" stroke-width="1" stroke="rgb(0,0,0)" stroke-linejoin="miter" stroke-linecap="square" stroke-miterlimit="3"/><path d=" M 97.546 683.546 C 93.218 681.261 96.159 674.088 106.4 661.997 C 88.722 673.719 79.712 680.866 79.4 683.41 C 82.369 679.56 84.026 672.432 84.4 661.997 C 80.869 673.046 76.193 680.194 70.4 683.41 L 97.546 683.546 Z " fill="rgb(0,0,0)" vector-effect="non-scaling-stroke" stroke-width="1" stroke="rgb(0,0,0)" stroke-linejoin="miter" stroke-linecap="square" stroke-miterlimit="3"/></g></g></svg>