<?xml version="1.0" encoding="UTF-8" standalone="no"?><!-- Generator: Gravit.io --><svg xmlns="http://www.w3.org/2000/svg" xmlns:xlink="http://www.w3.org/1999/xlink" style="isolation:isolate" viewBox="635.879 333.5 41.746 35" width="41.746pt" height="35pt"><defs><clipPath id="_clipPath_4qvoqkHjogS5f9MxU1JM3nzX2F1o4rID"><rect x="635.879" y="333.5" width="41.746" height="35"/></clipPath></defs><g clip-path="url(#_clipPath_4qvoqkHjogS5f9MxU1JM3nzX2F1o4rID)"><path d=" M 641.842 355.726 C 641.77 355.985 641.801 356.197 641.932 356.36 C 641.856 356.52 641.856 356.671 641.932 356.813 C 641.725 356.977 641.696 357.159 641.842 357.357 C 641.661 357.357 641.601 357.509 641.661 357.81 C 641.51 357.644 641.45 357.645 641.479 357.81 C 641.298 357.855 641.239 358.007 641.298 358.263 C 641.055 357.993 640.906 358.055 640.845 358.444 L 640.573 357.9 C 640.674 357.689 640.644 357.509 640.483 357.357 C 640.528 356.994 640.529 356.603 640.483 356.179 C 640.422 355.802 640.333 355.531 640.211 355.364 C 640.307 355.315 640.459 354.048 640.664 351.559 C 641.057 350.571 640.907 349.636 640.211 348.751 C 638.797 347.069 638.346 345.441 639.215 344.04 C 638.804 343.384 638.654 343.083 638.218 343.134 C 635.621 344.13 635.168 341.443 636.95 340.144 C 636.366 340.099 636.436 339.631 637.312 338.967 C 637.071 337.336 636.285 336.581 636.134 335.433 C 636.424 335.418 636.472 335.678 636.497 335.886 C 637.324 336.628 637.403 336.219 638.762 337.789 C 639.109 338.293 639.533 338.295 639.667 337.789 C 639.758 334.95 641.119 333.246 642.113 333.531 C 642.677 335.483 642.286 337.207 640.936 338.695 C 641.393 339.445 641.877 340.744 642.385 342.59 C 642.606 342.831 643.485 343.289 643.744 343.496 C 645.286 344.729 644.49 344.007 649.451 345.127 C 654.413 346.247 657.405 349.174 658.601 354.277 C 658.781 355.296 658.865 356.194 658.711 357.624 C 658.511 364.604 663.079 366.279 665.577 366.778 C 668.075 367.278 673.694 367.077 675.559 367.211 C 680.098 368.021 677.062 368.516 667.389 368.5 C 663.928 368.494 656.517 366.887 655.159 360.709 C 653.946 360.764 653.163 360.343 652.079 359.44 C 650.29 360.862 650.611 363.494 652.079 367.332 C 652.223 367.71 652.381 368.318 652.079 368.5 L 643.744 368.5 C 642.606 367.399 644.291 367.343 649.723 366.778 C 649.736 365.596 649.234 362.32 649.27 360.709 C 649.233 356.644 647.997 355.829 646.915 354.73 C 645.723 353.695 644.88 354.397 643.11 352.102 C 642.298 353.796 641.876 355.004 641.842 355.726 Z  M 641.479 351.918 C 641.298 353.008 641.036 354.418 641.117 354.639 C 641.362 354.36 641.559 353.337 642.295 351.468 C 642.159 351.121 642.069 351.001 641.842 350.925 C 641.74 351.049 641.581 351.507 641.479 351.918 Z " fill-rule="evenodd" fill="rgb(0,0,0)"/></g></svg>