<?xml version="1.0" encoding="UTF-8" standalone="no"?><!-- Generator: Gravit.io --><svg xmlns="http://www.w3.org/2000/svg" xmlns:xlink="http://www.w3.org/1999/xlink" style="isolation:isolate" viewBox="0 0 411 731" width="411pt" height="731pt"><defs><clipPath id="_clipPath_T9SrXySK08QIAjTph4319yW0fXhTfw1e"><rect width="411" height="731"/></clipPath></defs><g clip-path="url(#_clipPath_T9SrXySK08QIAjTph4319yW0fXhTfw1e)"><path d=" M 113.184 497.502 C 112.295 500.72 112.682 503.361 114.311 505.391 C 113.357 507.373 113.368 509.262 114.311 511.026 C 111.731 513.067 111.367 515.333 113.184 517.788 C 110.93 517.788 110.19 519.678 110.93 523.423 C 109.052 521.357 108.312 521.368 108.676 523.423 C 106.422 523.987 105.682 525.876 106.422 529.058 C 103.4 525.699 101.544 526.473 100.787 531.312 L 97.406 524.55 C 98.653 521.922 98.289 519.679 96.279 517.788 C 96.843 513.28 96.854 508.408 96.279 503.137 C 95.528 498.441 94.412 495.072 92.898 492.994 C 94.092 492.393 95.981 476.627 98.533 445.66 C 103.428 433.368 101.561 421.734 92.898 410.723 C 75.313 389.809 69.701 369.545 80.501 352.118 C 75.392 343.962 73.525 340.217 68.104 340.848 C 35.797 353.245 30.162 319.811 52.326 303.657 C 45.068 303.095 45.94 297.271 56.834 289.006 C 53.829 268.72 44.061 259.328 42.183 245.053 C 45.787 244.856 46.387 248.093 46.691 250.688 C 56.983 259.909 57.961 254.82 74.866 274.355 C 79.184 280.625 84.466 280.647 86.136 274.355 C 87.263 239.042 104.192 217.836 116.565 221.386 C 123.577 245.675 118.716 267.111 101.914 285.625 C 107.601 294.958 113.623 311.123 119.946 334.086 C 122.696 337.087 133.633 342.783 136.851 345.356 C 156.036 360.695 146.129 351.708 207.853 365.642 C 269.576 379.576 306.799 415.987 321.68 479.47 C 323.917 492.147 324.965 503.326 323.046 521.118 Q 320.553 607.949 408.46 634.997 L 431 656.41 C 388.567 663.708 295.753 636.35 278.854 559.487 C 263.768 560.172 254.021 554.934 240.536 543.709 C 218.282 561.391 222.28 594.134 240.536 641.888 C 242.331 646.583 244.293 654.156 240.536 656.41 L 136.851 656.41 C 122.687 642.72 143.649 642.021 211.234 634.997 C 211.393 620.286 205.149 579.535 205.599 559.487 C 205.136 508.916 189.764 498.785 176.297 485.105 C 161.466 472.233 150.985 480.967 128.962 452.422 C 118.86 473.485 113.612 488.523 113.184 497.502 Z  M 108.676 450.123 C 106.422 463.692 103.161 481.233 104.168 483.978 C 107.217 480.503 109.662 467.777 118.819 444.533 C 117.129 440.213 116.013 438.721 113.184 437.771 C 111.916 439.32 109.937 445.017 108.676 450.123 Z " fill-rule="evenodd" fill="rgb(0,0,0)" vector-effect="non-scaling-stroke" stroke-width="1" stroke="rgb(0,0,0)" stroke-linejoin="miter" stroke-linecap="square" stroke-miterlimit="3"/><g><rect x="0" y="656.546" width="411" height="74.454" transform="matrix(1,0,0,1,0,0)" fill="rgb(0,0,0)"/><path d=" M 0 656.546 C 2.092 627.147 10.102 589.544 24 543.709 C 14.158 595.431 14.168 633.008 24 656.41 C 36.444 635.263 42.515 607.469 42.183 573 C 48.595 595.031 48.605 622.844 42.183 656.41 C 55.435 578.697 76.858 550.904 106.422 573 C 79.806 562.528 63.286 590.341 56.834 656.41 L 0 656.546 Z " fill="rgb(0,0,0)" vector-effect="non-scaling-stroke" stroke-width="1" stroke="rgb(0,0,0)" stroke-linejoin="miter" stroke-linecap="square" stroke-miterlimit="3"/><path d=" M 97.546 656.546 C 93.218 654.261 96.159 647.088 106.4 634.997 C 88.722 646.719 79.712 653.866 79.4 656.41 C 82.369 652.56 84.026 645.432 84.4 634.997 C 80.869 646.046 76.193 653.194 70.4 656.41 L 97.546 656.546 Z " fill="rgb(0,0,0)" vector-effect="non-scaling-stroke" stroke-width="1" stroke="rgb(0,0,0)" stroke-linejoin="miter" stroke-linecap="square" stroke-miterlimit="3"/></g></g></svg>