<?xml version="1.0" encoding="UTF-8" standalone="no"?><!-- Generator: Gravit.io --><svg xmlns="http://www.w3.org/2000/svg" xmlns:xlink="http://www.w3.org/1999/xlink" style="isolation:isolate" viewBox="464.043 267.574 387.596 163.674" width="387.596pt" height="163.674pt"><defs><clipPath id="_clipPath_cjPGiqhKhLibMxNRNgFWeJL63QlnpcWF"><rect x="464.043" y="267.574" width="387.596" height="163.674"/></clipPath></defs><g clip-path="url(#_clipPath_cjPGiqhKhLibMxNRNgFWeJL63QlnpcWF)"><path d=" M 521.048 395.589 L 512.558 400.632 L 516.893 407.308 L 509.472 400.792 L 504.463 406.978 L 508.367 397.907 L 500.936 395.054 L 510.769 395.964 L 511.186 388.015 L 513.36 397.648 L 521.048 395.589 Z " fill="rgb(247,247,158)"/><path d=" M 799.295 270.74 L 793.419 278.677 L 800 283.154 L 790.636 280.019 L 788.411 287.661 L 788.499 277.786 L 780.543 278.032 L 789.962 275.065 L 787.27 267.574 L 793.003 275.615 L 799.295 270.74 Z " fill="rgb(247,247,158)"/><path d=" M 493.88 278.647 L 488.485 286.918 L 495.319 290.998 L 485.786 288.422 L 484.017 296.183 L 483.521 286.32 L 475.593 287.036 L 484.82 283.516 L 481.689 276.198 L 487.888 283.886 L 493.88 278.647 Z " fill="rgb(247,247,158)"/><path d=" M 831.575 318.034 L 823.085 323.077 L 827.419 329.753 L 819.999 323.237 L 814.989 329.423 L 818.893 320.352 L 811.462 317.499 L 821.295 318.409 L 821.713 310.46 L 823.886 320.093 L 831.575 318.034 Z " fill="rgb(247,247,158)"/><path d=" M 600.915 303.843 L 591.146 305.285 L 592.621 313.107 L 588.23 304.261 L 581.247 308.081 L 588.303 301.172 L 582.512 295.711 L 591.263 300.286 L 594.668 293.092 L 593.021 302.828 L 600.915 303.843 Z " fill="rgb(247,247,158)"/><path d=" M 700.044 280.081 L 694.506 288.257 L 701.269 292.455 L 691.782 289.715 L 689.879 297.444 L 689.553 287.574 L 681.615 288.153 L 690.901 284.793 L 687.897 277.422 L 693.962 285.216 L 700.044 280.081 Z " fill="rgb(247,247,158)"/><path d=" M 851.639 423.215 L 841.764 423.297 L 842.147 431.248 L 839.017 421.882 L 831.575 424.703 L 839.515 418.832 L 834.532 412.625 L 842.569 418.363 L 846.932 411.705 L 843.959 421.122 L 851.639 423.215 Z " fill="rgb(247,247,158)"/><path d=" M 808.186 367.712 L 801.859 375.295 L 808.169 380.147 L 799.003 376.473 L 796.338 383.973 L 796.999 374.12 L 789.043 373.904 L 798.618 371.488 L 796.365 363.854 L 801.621 372.214 L 808.186 367.712 Z " fill="rgb(247,247,158)"/><path d=" M 483.186 367.712 L 476.859 375.295 L 483.169 380.147 L 474.003 376.473 L 471.338 383.973 L 471.999 374.12 L 464.043 373.904 L 473.618 371.488 L 471.365 363.854 L 476.621 372.214 L 483.186 367.712 Z " fill="rgb(247,247,158)"/></g></svg>